# xmcd CD database file
#
# Track frame offsets:
#	150
#	10582
#	35397
#	72650
#	86410
#	103802
#	128672
#	145845
#	174330
#	191060
#	242620
#	263360
#	275050
#	284135
#
# Disc length: 3966 seconds
#
# Revision: 5
# Processed by: cddbd v1.5.2PL0 Copyright (c) Steve Scherf et al.
# Submitted via: CDex 1.70beta2
#
DISCID=c70f7c0e
DTITLE=Peter Gullin Trio - Transformed Evergreen
DYEAR=1994
DGENRE=Jazz
TTITLE0=Cherokee
TTITLE1=Insensatez
TTITLE2=Night and Day
TTITLE3=Nothing Rhymed
TTITLE4=Fantasia I
TTITLE5=Fantasia II
TTITLE6=Fantasia III
TTITLE7=Softly as in a Morning Sunrise
TTITLE8=Poem of Love
TTITLE9=Garota de Ipanema (Aquarela do Brasil)
TTITLE10=Afrodite
TTITLE11=The Hollow Clown
TTITLE12=Snurretoppen
TTITLE13=My One and Only Love
EXTD=Peter Gullin: tenor and baritone saxophone\nMorten Kargaard: guitar\nOle Rasmussen: bass\nRecorded March 10&11, 1994 YEAR: 1994
EXTT0=R. Noble, arr Peter Gullin
EXTT1=A.C. Jobim, arr Peter Gullin
EXTT2=C. Porter, arr Peter Gullin
EXTT3=Gilbert O'Sullivan
EXTT4=Peter Gullin
EXTT5=Peter Gullin
EXTT6=Peter Gullin
EXTT7=S. Romberg, arr Peter Gullin
EXTT8=Lars Lundstrm
EXTT9=A.C. Jobim, A. Baroso, arr Peter Gullin
EXTT10=Hkan Larsson
EXTT11=Mortern Kargaard
EXTT12=Carl Nielsen
EXTT13=G. Wood
PLAYORDER=
